# xmcd
#
# Track frame offsets: 
#        150
#        14062
#        29640
#        43725
#        56715
#        72555
#        87207
#        100767
#        112272
#        126729
#        141102
#        158442
#        173470
#        187257
#        202402
#        217825
#        230977
#        244207
#        256332
#        268622
#
# Disc length: 3737 seconds
#
# Revision: 3
# Processed by: cddbd v1.5.1PL0 Copyright (c) Steve Scherf et al.
# Submitted via: ExactAudioCopy v0.90b4
#
DISCID=3d0e9714
DTITLE=Various Artist - Jazz For Lovers
DYEAR=2001
DGENRE=Jazz
TTITLE0=Sarah Vaughan - You Go To My Head
TTITLE1=Glenn Miller - Moonlight Serenade
TTITLE2=Billie Holiday - The Man I Love
TTITLE3=Nat King Cole - You're Nobody Til Somebody Loves You
TTITLE4=Tommy Dorsey Orchestra - Liebestraum
TTITLE5=Frank Sinatra - Imagination
TTITLE6=Duke Ellington - Prelude To A Kiss
TTITLE7=Louis Armstrong - Love Walked In
TTITLE8=Nat King Cole - Sweet Lorraine
TTITLE9=Tony Pastor - Indian Love Call
TTITLE10=Glenn Miller - Beguin The Beguine
TTITLE11=Frank Sinatra - Blue Skies
TTITLE12=Coleman Hawkins - Body And Soul
TTITLE13=Ella Fitzgerald - Love And Kisses
TTITLE14=Miles Davis and Charlie Parker - Embraceable You
TTITLE15=Billie Holiday - Without Your Love
TTITLE16=Erroll Garner - For You
TTITLE17=Sarah Vaughan - My Kinda Love
TTITLE18=Pha Terrell - With Love In My Heart
TTITLE19=Mildred Bailey - Lover Comeback To Me
EXTD=Jazz for Lovers my name Agustin De La Garza greetings from Mexico
EXTD=YEAR: 2001
EXTT0=
EXTT1=
EXTT2=
EXTT3=
EXTT4=
EXTT5=
EXTT6=
EXTT7=
EXTT8=
EXTT9=
EXTT10=
EXTT11=
EXTT12=
EXTT13=
EXTT14=
EXTT15=
EXTT16=
EXTT17=
EXTT18=
EXTT19=
PLAYORDER=
